<svg width="24" height="24" viewBox="0 0 24 24" fill="none" xmlns="http://www.w3.org/2000/svg">
<path d="M18.2929 4.20711C18.6834 3.81658 19.3166 3.81658 19.7071 4.20711C20.0976 4.59763 20.0976 5.2308 19.7071 5.62132L5.565 19.7635C5.17447 20.154 4.54131 20.154 4.15079 19.7635C3.76026 19.373 3.76026 18.7398 4.15079 18.3493L18.2929 4.20711Z" fill="#15181F"/>
<path d="M4.20711 5.70717C3.81658 5.31664 3.81658 4.68348 4.20711 4.29295C4.59763 3.90243 5.23079 3.90243 5.62132 4.29295L19.7634 18.4351C20.1539 18.8256 20.1539 19.4588 19.7634 19.8493C19.3729 20.2399 18.7397 20.2399 18.3492 19.8493L4.20711 5.70717Z" fill="#15181F"/>
</svg>
